<svg width="287" height="287" viewBox="0 0 287 287" fill="none" xmlns="http://www.w3.org/2000/svg">
<rect x="5" y="5" width="277" height="277" rx="138.5" fill="black" stroke="black" stroke-width="10"/>
<mask id="path-2-inside-1_58696_15" fill="white">
<path d="M273 143.5C273 126.494 269.65 109.654 263.142 93.9425C256.634 78.2308 247.096 63.9549 235.07 51.9297C223.045 39.9045 208.769 30.3656 193.058 23.8576C177.346 17.3496 160.506 14 143.5 14L143.5 109.883C147.915 109.883 152.286 110.753 156.365 112.442C160.443 114.131 164.149 116.608 167.271 119.729C170.392 122.851 172.869 126.557 174.558 130.635C176.247 134.714 177.117 139.085 177.117 143.5H273Z"/>
</mask>
<path d="M273 143.5C273 126.494 269.65 109.654 263.142 93.9425C256.634 78.2308 247.096 63.9549 235.07 51.9297C223.045 39.9045 208.769 30.3656 193.058 23.8576C177.346 17.3496 160.506 14 143.5 14L143.5 109.883C147.915 109.883 152.286 110.753 156.365 112.442C160.443 114.131 164.149 116.608 167.271 119.729C170.392 122.851 172.869 126.557 174.558 130.635C176.247 134.714 177.117 139.085 177.117 143.5H273Z" fill="#FD433E" stroke="black" stroke-width="20" mask="url(#path-2-inside-1_58696_15)"/>
<mask id="path-3-inside-2_58696_15" fill="white">
<path d="M143.5 14C126.494 14 109.654 17.3496 93.9425 23.8576C78.2308 30.3656 63.9549 39.9045 51.9297 51.9297C39.9045 63.9549 30.3656 78.2308 23.8576 93.9425C17.3496 109.654 14 126.494 14 143.5L109.883 143.5C109.883 139.085 110.753 134.714 112.442 130.635C114.131 126.557 116.608 122.851 119.729 119.729C122.851 116.608 126.557 114.131 130.635 112.442C134.714 110.753 139.085 109.883 143.5 109.883L143.5 14Z"/>
</mask>
<path d="M143.5 14C126.494 14 109.654 17.3496 93.9425 23.8576C78.2308 30.3656 63.9549 39.9045 51.9297 51.9297C39.9045 63.9549 30.3656 78.2308 23.8576 93.9425C17.3496 109.654 14 126.494 14 143.5L109.883 143.5C109.883 139.085 110.753 134.714 112.442 130.635C114.131 126.557 116.608 122.851 119.729 119.729C122.851 116.608 126.557 114.131 130.635 112.442C134.714 110.753 139.085 109.883 143.5 109.883L143.5 14Z" fill="#3ACA4A" stroke="black" stroke-width="20" mask="url(#path-3-inside-2_58696_15)"/>
<mask id="path-4-inside-3_58696_15" fill="white">
<path d="M14 143.5C14 160.506 17.3496 177.346 23.8576 193.058C30.3656 208.769 39.9045 223.045 51.9297 235.07C63.9549 247.096 78.2308 256.634 93.9425 263.142C109.654 269.65 126.494 273 143.5 273L143.5 177.117C139.085 177.117 134.714 176.247 130.635 174.558C126.557 172.869 122.851 170.392 119.729 167.271C116.608 164.149 114.131 160.443 112.442 156.365C110.753 152.286 109.883 147.915 109.883 143.5H14Z"/>
</mask>
<path d="M14 143.5C14 160.506 17.3496 177.346 23.8576 193.058C30.3656 208.769 39.9045 223.045 51.9297 235.07C63.9549 247.096 78.2308 256.634 93.9425 263.142C109.654 269.65 126.494 273 143.5 273L143.5 177.117C139.085 177.117 134.714 176.247 130.635 174.558C126.557 172.869 122.851 170.392 119.729 167.271C116.608 164.149 114.131 160.443 112.442 156.365C110.753 152.286 109.883 147.915 109.883 143.5H14Z" fill="#FEDA30" stroke="black" stroke-width="20" mask="url(#path-4-inside-3_58696_15)"/>
<mask id="path-5-inside-4_58696_15" fill="white">
<path d="M143.5 273C160.506 273 177.346 269.65 193.058 263.142C208.769 256.634 223.045 247.096 235.07 235.07C247.096 223.045 256.634 208.769 263.142 193.058C269.65 177.346 273 160.506 273 143.5L177.117 143.5C177.117 147.915 176.247 152.286 174.558 156.365C172.869 160.443 170.392 164.149 167.271 167.271C164.149 170.392 160.443 172.869 156.365 174.558C152.286 176.247 147.915 177.117 143.5 177.117L143.5 273Z"/>
</mask>
<path d="M143.5 273C160.506 273 177.346 269.65 193.058 263.142C208.769 256.634 223.045 247.096 235.07 235.07C247.096 223.045 256.634 208.769 263.142 193.058C269.65 177.346 273 160.506 273 143.5L177.117 143.5C177.117 147.915 176.247 152.286 174.558 156.365C172.869 160.443 170.392 164.149 167.271 167.271C164.149 170.392 160.443 172.869 156.365 174.558C152.286 176.247 147.915 177.117 143.5 177.117L143.5 273Z" fill="#1377D7" stroke="black" stroke-width="20" mask="url(#path-5-inside-4_58696_15)"/>
</svg>
